<?xml version="1.0" encoding="utf-8"?>
<!-- Generator: Adobe Illustrator 21.1.0, SVG Export Plug-In . SVG Version: 6.00 Build 0)  -->
<!DOCTYPE svg PUBLIC "-//W3C//DTD SVG 1.1//EN" "http://www.w3.org/Graphics/SVG/1.1/DTD/svg11.dtd">
<svg version="1.1"
	 id="Layer_1" xmlns:cc="http://creativecommons.org/ns#" xmlns:dc="http://purl.org/dc/elements/1.1/" xmlns:inkscape="http://www.inkscape.org/namespaces/inkscape" xmlns:rdf="http://www.w3.org/1999/02/22-rdf-syntax-ns#" xmlns:sodipodi="http://sodipodi.sourceforge.net/DTD/sodipodi-0.dtd" xmlns:svg="http://www.w3.org/2000/svg"
	 xmlns="http://www.w3.org/2000/svg" xmlns:xlink="http://www.w3.org/1999/xlink" x="0px" y="0px" viewBox="0 0 150 150"
	 style="enable-background:new 0 0 150 150;" xml:space="preserve">
<style type="text/css">
	.st0{fill:#F05025;}
	.st1{enable-background:new    ;}
</style>
<g transform="translate(0,-958.61215)">
	<path class="st0" d="M120.2,998.6c1,0,1.9,0.8,1.9,1.9v80.6c0,1-0.8,1.9-1.9,1.9H99.6c-1,0-1.9-0.8-1.9-1.9v-80.6
		c0-1,0.8-1.9,1.9-1.9H120.2z M116.8,1010.4h-13.9c-1,0-1.9,0.8-1.9,1.9v6.4c0,1,0.8,1.9,1.9,1.9h13.9c1,0,1.9-0.8,1.9-1.9v-6.4
		C118.7,1011.2,117.8,1010.4,116.8,1010.4z M116.8,1067.6h-13.9c-1,0-1.9,0.8-1.9,1.9v2.6c0,1,0.8,1.9,1.9,1.9h13.9
		c1,0,1.9-0.8,1.9-1.9v-2.6C118.7,1068.4,117.8,1067.6,116.8,1067.6z"/>
	<path class="st0" d="M92.1,998.6c1,0,1.9,0.8,1.9,1.9v80.6c0,1-0.8,1.9-1.9,1.9H71.4c-1,0-1.9-0.8-1.9-1.9v-80.6
		c0-1,0.8-1.9,1.9-1.9H92.1z M88.7,1010.4H74.8c-1,0-1.9,0.8-1.9,1.9v6.4c0,1,0.8,1.9,1.9,1.9h13.9c1,0,1.9-0.8,1.9-1.9v-6.4
		C90.6,1011.2,89.7,1010.4,88.7,1010.4z M88.7,1067.6H74.8c-1,0-1.9,0.8-1.9,1.9v2.6c0,1,0.8,1.9,1.9,1.9h13.9c1,0,1.9-0.8,1.9-1.9
		v-2.6C90.6,1068.4,89.7,1067.6,88.7,1067.6z"/>
	<path class="st0" d="M65.1,1027.5c1.1,0.2,1.8,1.1,1.6,2.2l-9.6,51.7c-0.2,1-1.2,1.7-2.3,1.5l-15.5-2.6c-1.1-0.2-1.8-1.1-1.6-2.2
		l9.6-51.7c0.2-1,1.2-1.7,2.3-1.5L65.1,1027.5z M57.8,1034.8l-3.9-0.7c-1.1-0.2-2.1,0.5-2.3,1.5l-6.2,33.2c-0.2,1,0.5,2,1.6,2.2
		l3.9,0.7c1.1,0.2,2.1-0.5,2.3-1.5l6.2-33.2C59.5,1036,58.8,1035,57.8,1034.8L57.8,1034.8z"/>
</g>
<text transform="matrix(1 0 0 1 25.75 159.5)" style="font-family:'HelveticaNeue-Bold'; font-size:5px;">Created by Gonzalo Bravo</text>
<text transform="matrix(1 0 0 1 25.75 164.5)" style="font-family:'HelveticaNeue-Bold'; font-size:5px;">from the Noun Project</text>
</svg>
